<svg width="421" height="421" viewBox="0 0 421 421" fill="none" xmlns="http://www.w3.org/2000/svg">
<g id="idealogo 1">
<g id="g859">
<g id="g1424">
<path id="path1428" d="M182.5 401.436C119.011 392.813 65.9384 360.188 32.5849 309.279C20.0375 290.127 10.6347 267.153 5.86773 244C3.77083 233.815 3.5 229.812 3.5 209C3.5 188.447 3.78792 184.079 5.79623 174.166C18.2538 112.678 61.041 60.2025 120.152 33.9169C149.834 20.7182 176.877 15.0357 210 15.0378C245.336 15.0401 274.831 21.5409 304.5 35.8662C374.872 69.8441 417.883 135.095 417.982 208.026C418.049 257.861 399.911 302.246 364.515 338.86C330.029 374.534 284.729 396.393 233.789 401.942C220.748 403.363 194.802 403.107 182.5 401.436V401.436ZM158.99 283.352C168.803 281.389 177.899 262.71 181.56 237C183.713 221.885 183.978 191.931 182.082 178C179.145 156.426 172.518 138.411 165.03 131.646L160.994 128H139.134H117.273L118.174 132.959C119.308 139.199 118.808 279.871 117.643 282.25C116.842 283.886 118.054 284 136.268 284C146.983 284 157.208 283.708 158.99 283.352ZM151.667 235.333C151.3 234.967 151 221.467 151 205.333C151 177.121 151.073 176 152.911 176C153.962 176 155.956 177.347 157.342 178.994C165.601 188.809 164.436 228.378 155.709 234.491C153.313 236.17 152.643 236.309 151.667 235.333V235.333ZM266 256.394V229.788L263.099 232.894L260.198 236H248.099H236V229.5V223H245.566C250.827 223 256.002 223.466 257.066 224.035C258.951 225.044 259 224.509 259 202.835C259 185.541 258.733 180.867 257.8 181.8C257.022 182.578 252.978 183 246.3 183H236V177V171H248.917H261.833L263.885 173.75L265.937 176.5L265.968 151.75L266 127H234.019H202.038L202.769 131.75C203.723 137.947 203.723 272.053 202.769 278.25L202.038 283H234.019H266V256.394ZM315.063 275.25C315.097 270.988 315.66 264.125 316.313 260L317.5 252.5L325.75 252.21C330.287 252.05 334 252.149 334 252.429C334 252.71 334.721 257.791 335.602 263.72C336.483 269.649 336.941 276.412 336.621 278.75L336.038 283H356.019C377.682 283 376.997 283.202 375.005 277.399C372.928 271.349 354.152 136.591 354.711 131.75L355.26 127H329.002H302.744L303.393 131.056C304.194 136.065 286.066 272.136 283.45 280.75L282.767 283H298.883H315L315.063 275.25H315.063ZM321.023 222.25C321.036 221.288 321.925 214.65 323 207.5C324.075 200.35 325.015 193.825 325.089 193C325.23 191.438 329.829 219.179 329.938 222.25C329.988 223.667 329.143 224 325.5 224C321.872 224 321.004 223.661 321.023 222.25ZM91.5 204V126H72.8129H54.1257L54.8129 129.75C55.1908 131.812 55.5 165.225 55.5 204C55.5 242.775 55.1908 276.188 54.8129 278.25L54.1257 282H72.8129H91.5V204Z" fill="#243E8E"/>
<path id="path1426" d="M0 210.5V0H210.5H421V210.5V421H210.5H0V210.5ZM233.789 401.942C284.729 396.393 330.029 374.534 364.515 338.86C399.911 302.246 418.049 257.861 417.982 208.026C417.851 111.693 341.762 30.2493 239 16.4491C225.331 14.6135 194.416 14.6221 181.455 16.465C166.925 18.5311 154.023 21.4877 141.652 25.5862C70.9244 49.0186 19.8299 104.899 5.79623 174.166C3.78792 184.079 3.5 188.447 3.5 209C3.5 229.812 3.77083 233.815 5.86773 244C23.0023 327.222 92.5607 389.221 182.5 401.436C194.802 403.107 220.748 403.363 233.789 401.942V401.942ZM117.643 282.25C118.808 279.871 119.308 139.199 118.174 132.959L117.273 128H139.134H160.994L165.03 131.646C172.518 138.411 179.145 156.426 182.082 178C183.978 191.931 183.713 221.885 181.56 237C177.899 262.71 168.803 281.389 158.99 283.352C157.208 283.708 146.983 284 136.268 284C118.054 284 116.842 283.886 117.643 282.25ZM155.709 234.491C164.436 228.378 165.601 188.809 157.342 178.994C155.956 177.347 153.962 176 152.911 176C151.073 176 151 177.121 151 205.333C151 221.467 151.3 234.967 151.667 235.333C152.643 236.309 153.313 236.17 155.709 234.491V234.491ZM202.769 278.25C203.723 272.053 203.723 137.947 202.769 131.75L202.038 127H234.019H266L265.968 151.75L265.937 176.5L263.885 173.75L261.833 171H248.917H236V177V183H246.3C252.978 183 257.022 182.578 257.8 181.8C258.733 180.867 259 185.541 259 202.835C259 224.509 258.951 225.044 257.066 224.035C256.002 223.466 250.827 223 245.566 223H236V229.5V236H248.099H260.198L263.099 232.894L266 229.788V256.394V283H234.019H202.038L202.769 278.25ZM283.45 280.75C286.066 272.136 304.194 136.065 303.393 131.056L302.744 127H329.002H355.26L354.711 131.75C354.152 136.591 372.928 271.349 375.005 277.399C376.997 283.202 377.682 283 356.019 283H336.038L336.621 278.75C336.941 276.412 336.483 269.649 335.602 263.72C334.721 257.791 334 252.71 334 252.429C334 252.149 330.287 252.05 325.75 252.21L317.5 252.5L316.313 260C315.66 264.125 315.097 270.988 315.063 275.25L315 283H298.883H282.767L283.45 280.75ZM329.938 222.25C329.829 219.179 325.23 191.438 325.089 193C325.015 193.825 324.075 200.35 323 207.5C320.342 225.18 320.164 224 325.5 224C329.143 224 329.988 223.667 329.938 222.25ZM54.8129 278.25C55.1908 276.188 55.5 242.775 55.5 204C55.5 165.225 55.1908 131.812 54.8129 129.75L54.1257 126H72.8129H91.5V204V282H72.8129H54.1257L54.8129 278.25Z" fill="#4FCDF0"/>
</g>
</g>
</g>
</svg>
