<?xml version="1.0" encoding="UTF-8" standalone="no"?>
<svg
   xmlns:dc="http://purl.org/dc/elements/1.1/"
   xmlns:cc="http://creativecommons.org/ns#"
   xmlns:rdf="http://www.w3.org/1999/02/22-rdf-syntax-ns#"
   xmlns:svg="http://www.w3.org/2000/svg"
   xmlns="http://www.w3.org/2000/svg"
   xmlns:sodipodi="http://sodipodi.sourceforge.net/DTD/sodipodi-0.dtd"
   xmlns:inkscape="http://www.inkscape.org/namespaces/inkscape"
   inkscape:version="1.0beta2 (2b71d25, 2019-12-03)"
   sodipodi:docname="ikea-vari.svg"
   id="svg889"
   preserveAspectRatio="xMidYMid meet"
   viewBox="0 0 487.5 277.49999"
   height="370"
   width="650"
   version="1.0">
  <defs
     id="defs893">
    <clipPath
       id="clipPath897"
       clipPathUnits="userSpaceOnUse">
      <rect
         transform="scale(1,-1)"
         y="-3253.7981"
         x="5060.54"
         height="2938.3784"
         width="5051.9487"
         id="rect899"
         style="fill:#6e6e6e;stroke:#bf7500;stroke-width:7.5" />
    </clipPath>
  </defs>
  <sodipodi:namedview
     inkscape:current-layer="svg889"
     inkscape:window-maximized="0"
     inkscape:window-y="23"
     inkscape:window-x="0"
     inkscape:cy="262.11326"
     inkscape:cx="486.44507"
     inkscape:zoom="0.8729305"
     units="px"
     showgrid="false"
     id="namedview891"
     inkscape:window-height="755"
     inkscape:window-width="1280"
     inkscape:pageshadow="2"
     inkscape:pageopacity="0"
     guidetolerance="10"
     gridtolerance="10"
     objecttolerance="10"
     borderopacity="1"
     inkscape:document-rotation="0"
     bordercolor="#666666"
     pagecolor="#ffffff" />
  <metadata
     id="metadata833">
Created by potrace 1.16, written by Peter Selinger 2001-2019
<rdf:RDF>
  <cc:Work
     rdf:about="">
    <dc:format>image/svg+xml</dc:format>
    <dc:type
       rdf:resource="http://purl.org/dc/dcmitype/StillImage" />
    <dc:title></dc:title>
  </cc:Work>
</rdf:RDF>
</metadata>
  <g
     clip-path="url(#clipPath897)"
     id="g887"
     stroke="none"
     fill="#000000"
     transform="matrix(0.1,0,0,-0.1,-517.2233,313.35135)">
    <path
       inkscape:connector-curvature="0"
       id="path837"
       d="m 5330,3079 c -72,-29 -105,-107 -105,-249 0,-91 2,-99 40,-175 l 40,-80 3,-152 c 4,-146 5,-153 24,-153 20,0 20,-4 18,-332 -4,-443 -8,-398 39,-398 34,0 40,3 46,28 4,15 6,179 6,365 -2,288 0,337 13,337 12,0 15,27 18,148 l 3,147 39,80 c 31,66 39,94 43,160 6,94 -15,196 -50,234 -42,46 -119,63 -177,40 z m 131,-32 c 57,-37 74,-85 74,-207 0,-102 -1,-107 -40,-184 l -39,-79 -4,-149 -5,-149 -56,3 -56,3 -5,145 c -5,144 -5,146 -45,230 -38,80 -40,89 -40,180 1,75 5,105 22,142 38,83 124,112 194,65 z m -42,-1009 c 0,-169 -3,-225 -11,-205 -13,37 -24,34 -36,-10 -7,-28 -10,23 -11,205 l -1,242 h 30 30 z m -5,-303 c 10,-39 13,-80 9,-117 -5,-52 -8,-58 -28,-58 -44,0 -48,114 -9,229 7,20 10,13 28,-54 z" />
    <path
       inkscape:connector-curvature="0"
       id="path839"
       d="m 5760,3069 c -72,-29 -105,-107 -105,-249 0,-91 2,-99 40,-175 l 40,-80 3,-149 c 3,-140 5,-149 24,-154 20,-5 21,-8 16,-347 -4,-314 -3,-344 13,-364 23,-28 45,-27 65,5 16,23 17,61 15,365 -2,294 -1,339 12,339 13,0 16,25 19,148 l 3,147 39,80 c 31,66 39,94 43,160 6,94 -15,196 -50,234 -42,46 -119,63 -177,40 z m 131,-32 c 57,-38 74,-86 74,-208 0,-98 -2,-109 -31,-165 -41,-78 -55,-148 -54,-269 1,-55 1,-106 1,-113 -1,-9 -17,-12 -58,-10 l -58,3 -6,150 c -6,149 -6,151 -45,230 -37,76 -39,85 -39,175 1,75 5,105 22,142 38,83 124,112 194,65 z m -41,-1049 c -1,-209 -4,-279 -14,-297 -29,-52 -36,5 -36,293 v 276 h 25 25 z m -41,-386 c 1,-20 -3,-31 -9,-27 -5,3 -10,27 -9,53 0,35 3,42 9,27 5,-11 9,-35 9,-53 z m 51,26 c 0,-18 -7,-41 -15,-52 -13,-17 -14,-16 -10,10 2,16 4,39 4,52 1,35 21,26 21,-10 z" />
    <path
       inkscape:connector-curvature="0"
       id="path841"
       d="m 7573,3035 c -3,-9 -3,-29 0,-44 4,-20 -5,-55 -29,-114 -55,-136 -74,-226 -86,-412 -12,-202 -5,-727 11,-768 6,-15 24,-36 41,-45 28,-16 30,-21 30,-77 0,-56 -7,-100 -24,-152 -4,-13 -3,-23 2,-23 17,0 33,61 39,148 5,69 9,82 22,80 10,-2 17,-16 19,-37 3,-33 -12,-144 -24,-176 -4,-8 -1,-15 5,-15 15,0 31,69 34,148 l 2,70 95,4 c 71,3 109,10 148,28 78,34 91,70 47,130 -33,44 -32,70 7,272 l 32,166 43,12 c 39,11 43,16 43,44 0,17 8,47 18,66 11,19 22,47 26,63 4,16 13,27 23,27 66,0 416,43 450,56 23,8 58,33 77,55 33,36 36,44 36,99 v 60 h 35 c 34,0 35,1 35,40 0,33 3,40 20,40 16,0 20,-7 20,-30 v -30 h 95 c 57,0 95,4 95,10 0,6 21,10 46,10 51,0 84,14 84,35 0,12 21,15 118,15 64,1 176,2 247,3 l 130,2 v 25 25 l -120,2 c -66,1 -177,2 -247,3 -116,0 -128,2 -128,18 0,30 -22,42 -77,42 -40,0 -53,4 -53,15 0,12 -17,15 -95,15 h -95 v -35 c 0,-28 -4,-35 -20,-35 -17,0 -20,7 -20,40 0,39 -1,40 -33,40 -29,0 -35,5 -46,35 -24,66 -14,65 -571,65 -440,0 -501,-2 -507,-15 z m 1041,-31 26,-27 v -195 -195 l -42,-42 c -53,-52 -69,-56 -378,-85 -175,-17 -229,-26 -242,-38 -22,-22 -122,-529 -115,-588 2,-23 14,-55 27,-71 15,-21 20,-38 15,-53 -8,-27 -73,-56 -158,-70 -102,-18 -231,11 -256,59 -19,35 -31,405 -21,636 14,300 33,402 102,555 23,51 28,73 23,102 l -7,38 h 500 499 z m 96,-174 v -110 h -25 -25 v 110 110 h 25 25 z m 230,-5 v -95 h -75 -75 v 95 95 h 75 75 z m 125,0 v -60 l -52,-3 -53,-3 v 66 66 l 53,-3 52,-3 z m -295,0 c 0,-18 -5,-25 -20,-25 -15,0 -20,7 -20,25 0,18 5,25 20,25 15,0 20,-7 20,-25 z m 395,0 30,-13 -52,-1 c -41,-1 -53,2 -53,14 0,19 35,19 75,0 z m 175,-1 c 23,-9 39,-18 37,-21 -3,-2 -26,5 -53,16 -27,11 -43,20 -37,20 7,1 31,-6 53,-15 z M 8044,2383 c -9,-21 -22,-58 -29,-82 -8,-31 -19,-47 -35,-53 -13,-5 -25,-7 -27,-5 -6,7 27,150 38,164 7,7 24,13 40,13 h 29 z" />
    <path
       inkscape:connector-curvature="0"
       id="path843"
       d="m 7710,2950 c 0,-7 143,-10 410,-10 267,0 410,3 410,10 0,7 -143,10 -410,10 -267,0 -410,-3 -410,-10 z" />
    <path
       inkscape:connector-curvature="0"
       id="path845"
       d="m 8590,2656 c 0,-38 -24,-41 -350,-46 l -317,-5 -37,-29 c -61,-46 -71,-83 -101,-369 -23,-228 -26,-282 -11,-266 2,2 16,121 31,264 30,291 38,317 107,362 l 41,28 315,5 c 296,5 314,6 328,24 16,23 18,46 4,46 -5,0 -10,-6 -10,-14 z" />
    <path
       inkscape:connector-curvature="0"
       id="path847"
       d="m 6220,2945 c -8,-2 -36,-7 -62,-10 l -48,-6 v -148 -148 l 32,-7 c 17,-3 69,-9 115,-13 l 84,-6 -3,-396 -4,-396 -29,-80 c -25,-72 -28,-93 -28,-205 0,-81 5,-141 15,-170 l 14,-45 h 114 115 l 14,50 c 7,28 14,101 14,165 1,99 -3,127 -26,198 -39,119 -47,218 -47,568 v 311 l 93,6 c 150,11 137,-5 137,167 0,144 -1,148 -22,155 -24,7 -452,17 -478,10 z m 440,-23 45,-7 3,-129 c 1,-71 -1,-133 -5,-137 -5,-5 -69,-13 -144,-20 -107,-10 -166,-10 -268,0 -72,6 -138,14 -146,17 -12,5 -15,30 -15,135 0,148 -13,133 125,149 81,9 321,4 405,-8 z m -180,-464 v -148 h -60 -60 v 148 148 l 60,-1 h 60 z m 2,-400 c 4,-237 5,-245 33,-328 25,-72 29,-101 30,-190 0,-58 -6,-129 -13,-157 l -14,-53 h -99 -98 l -13,43 c -7,23 -12,94 -13,157 0,102 3,125 29,200 29,83 30,90 34,328 l 4,242 h 58 58 z" />
    <path
       inkscape:connector-curvature="0"
       id="path849"
       d="m 7130,2078 c 1,-509 2,-538 23,-641 12,-59 27,-108 32,-108 6,0 20,49 32,108 21,103 22,132 23,641 v 532 h -55 -55 z m 30,12 c 0,-327 -3,-500 -10,-500 -7,0 -10,173 -10,500 0,327 3,500 10,500 7,0 10,-173 10,-500 z m 40,0 c 0,-327 -3,-500 -10,-500 -7,0 -10,173 -10,500 0,327 3,500 10,500 7,0 10,-173 10,-500 z m 30,0 c 0,-327 -3,-500 -10,-500 -7,0 -10,173 -10,500 0,327 3,500 10,500 7,0 10,-173 10,-500 z m -14,-552 c -4,-18 -9,-50 -13,-70 -3,-21 -11,-38 -18,-38 -7,0 -15,17 -18,38 -4,20 -9,52 -13,70 -6,32 -6,32 31,32 37,0 37,0 31,-32 z" />
    <path
       inkscape:connector-curvature="0"
       id="path851"
       d="m 9660,2595 c 0,-2 -9,-75 -20,-162 -19,-149 -44,-560 -38,-650 2,-40 0,-43 -58,-86 -79,-58 -155,-145 -198,-226 -19,-37 -45,-76 -57,-86 -37,-34 -71,-115 -77,-182 -6,-76 9,-117 48,-133 43,-18 84,-4 128,44 54,58 82,138 82,229 0,64 4,79 29,118 38,59 136,153 150,145 33,-21 95,-212 84,-257 -4,-13 -16,-39 -27,-58 -14,-24 -21,-58 -24,-116 -5,-92 7,-140 45,-185 31,-38 91,-42 124,-9 51,51 71,169 44,259 -9,30 -20,90 -25,132 -10,98 -40,188 -90,271 l -39,65 68,169 c 99,243 225,643 208,660 -4,3 -15,-5 -26,-18 -41,-50 -166,-275 -211,-379 l -47,-109 -6,172 c -5,148 -24,319 -43,380 -5,15 -24,25 -24,12 z m 47,-412 6,-213 -33,-89 c -58,-162 -62,-155 -56,84 6,191 25,428 43,530 l 7,40 13,-70 c 8,-38 16,-166 20,-282 z m 256,200 c -64,-230 -211,-617 -259,-680 -14,-19 -55,-58 -90,-87 -56,-47 -128,-127 -159,-181 -10,-16 -13,-16 -53,0 l -42,17 22,41 c 33,58 112,142 182,192 34,24 69,52 78,62 9,10 46,99 83,198 37,99 87,220 112,270 43,85 141,255 147,255 2,0 -7,-39 -21,-87 z m -173,-804 c 30,-59 60,-159 60,-203 0,-25 -3,-26 -50,-26 -50,0 -50,0 -50,33 0,46 -24,130 -56,194 l -26,55 28,29 28,29 18,-28 c 11,-15 32,-52 48,-83 z m -383,-166 43,-18 v -60 c 0,-83 -26,-150 -81,-207 -52,-55 -83,-61 -119,-23 -47,50 -21,173 58,268 26,31 49,57 52,57 3,0 24,-8 47,-17 z m 453,-104 c 0,-11 7,-46 16,-77 34,-118 -11,-252 -85,-252 -85,0 -125,170 -68,293 l 26,57 h 55 c 50,0 56,-2 56,-21 z" />
    <path
       inkscape:connector-curvature="0"
       id="path853"
       d="m 9647,1727 c -8,-21 8,-39 29,-35 11,2 20,13 22,26 3,18 -1,22 -21,22 -14,0 -27,-6 -30,-13 z" />
    <path
       inkscape:connector-curvature="0"
       id="path855"
       d="m 9316,1349 c -44,-35 -67,-92 -64,-157 3,-51 6,-58 31,-70 22,-11 32,-11 54,0 69,33 116,166 79,223 -21,31 -63,33 -100,4 z m 84,-18 c 24,-47 -8,-145 -60,-183 -51,-37 -88,10 -69,86 22,88 102,147 129,97 z" />
    <path
       inkscape:connector-curvature="0"
       id="path857"
       d="m 9747,1262 c -40,-44 -48,-131 -18,-198 21,-46 57,-62 92,-43 58,31 67,189 14,242 -22,22 -68,22 -88,-1 z m 88,-32 c 19,-37 19,-122 0,-159 -43,-84 -114,-15 -103,100 9,85 71,121 103,59 z" />
    <path
       inkscape:connector-curvature="0"
       id="path859"
       d="m 6799,2567 c -48,-32 -68,-91 -68,-202 -1,-82 2,-96 31,-155 29,-57 33,-77 36,-164 3,-84 6,-99 22,-103 16,-4 18,-25 24,-241 8,-277 17,-384 32,-389 20,-7 23,34 30,334 7,272 8,292 26,296 16,5 18,16 18,92 0,78 4,96 34,164 19,42 37,97 40,122 8,52 -6,155 -26,196 -33,69 -133,94 -199,50 z m 155,-29 c 26,-26 36,-47 46,-101 16,-85 7,-144 -33,-227 -27,-55 -32,-80 -37,-160 l -5,-95 h -50 -50 l -6,100 c -5,86 -10,110 -39,169 -30,61 -34,79 -33,145 2,96 20,149 63,179 50,34 104,30 144,-10 z m -64,-644 c 0,-25 -4,-43 -9,-40 -5,4 -12,0 -14,-6 -3,-7 -6,11 -6,40 -1,40 2,52 14,52 11,0 15,-12 15,-46 z m -2,-254 c 0,-63 -3,-155 -7,-205 -6,-82 -7,-74 -12,100 -7,198 -3,277 12,240 4,-11 7,-72 7,-135 z" />
    <path
       inkscape:connector-curvature="0"
       id="path861"
       d="m 8441,2391 c -12,-12 -21,-33 -21,-48 0,-21 -3,-24 -12,-15 -30,30 -108,0 -108,-41 0,-16 -3,-18 -12,-9 -7,7 -31,12 -53,12 -78,0 -75,16 -75,-443 0,-429 -6,-518 -44,-620 -13,-34 -29,-88 -36,-120 -13,-55 -12,-58 11,-83 63,-69 167,-82 383,-49 99,15 129,16 181,6 77,-14 160,-14 186,-1 23,13 24,43 4,164 -15,97 -9,132 33,169 11,10 103,63 204,118 202,111 215,120 234,166 19,45 17,70 -6,93 -31,31 -64,25 -187,-36 -63,-31 -116,-54 -117,-53 -2,2 41,111 95,243 124,298 129,346 37,346 -30,0 -38,4 -38,18 0,60 -92,88 -126,37 -14,-22 -18,-23 -31,-10 -19,20 -92,20 -99,0 -5,-13 -10,-12 -31,5 -29,22 -83,26 -101,8 -9,-9 -12,-4 -12,24 0,82 -35,118 -95,98 -19,-6 -35,-17 -35,-23 0,-7 -8,4 -18,23 -14,29 -23,36 -54,38 -27,2 -43,-3 -57,-17 z m 99,-26 c 9,-19 17,-74 21,-145 l 5,-115 2,109 c 2,122 13,146 64,146 24,0 32,-6 45,-37 13,-32 15,-80 12,-317 -3,-199 -1,-280 7,-283 11,-4 99,83 159,155 67,81 135,72 135,-17 0,-52 -16,-77 -163,-253 -79,-95 -149,-183 -156,-195 -24,-46 -14,-104 34,-185 25,-43 45,-80 45,-83 0,-3 -8,-5 -17,-5 -11,-1 -4,-7 15,-15 35,-15 37,-18 22,-45 -15,-29 -110,-59 -268,-86 -166,-28 -261,-30 -323,-9 -47,17 -89,51 -89,72 0,20 44,44 97,53 40,6 42,8 15,9 -18,0 -49,-6 -69,-14 -20,-8 -38,-13 -40,-11 -2,2 13,53 33,112 l 38,109 6,468 c 5,449 6,469 24,483 26,18 56,18 84,-2 21,-15 22,-21 24,-202 l 2,-187 6,215 5,215 28,13 c 24,12 31,11 53,-2 13,-9 25,-24 25,-34 1,-9 5,6 10,33 14,83 77,113 109,50 z m 518,-121 c 12,-8 22,-25 22,-36 0,-12 -21,-77 -47,-144 l -48,-122 -32,5 c -21,4 -42,0 -58,-11 -14,-9 -25,-14 -25,-12 0,9 102,271 116,297 12,24 25,35 44,38 3,1 16,-6 28,-15 z m -252,-29 c 15,-24 14,-30 -42,-172 l -59,-147 -3,142 c -3,166 7,202 58,202 20,0 35,-8 46,-25 z m 108,15 c 38,-14 34,-38 -31,-212 -54,-146 -60,-156 -120,-218 l -63,-65 v 49 c 0,75 155,456 186,456 2,0 14,-4 28,-10 z m 251,-64 c 11,-8 18,-25 17,-43 0,-17 -46,-142 -102,-277 -55,-136 -98,-251 -95,-256 11,-18 34,-11 145,45 123,62 155,67 172,30 15,-32 -5,-79 -46,-109 -17,-13 -114,-69 -217,-125 -222,-122 -225,-125 -216,-245 4,-45 10,-92 13,-105 7,-23 7,-23 -20,-6 -14,9 -26,22 -26,28 0,6 -25,53 -56,106 -64,108 -74,151 -47,198 10,17 80,106 156,197 150,180 172,218 163,280 -12,75 88,296 133,296 4,0 15,-6 26,-14 z M 8829,1036 c 25,-30 6,-46 -56,-46 -32,0 -75,3 -97,7 l -39,6 60,19 c 33,10 66,25 73,33 13,16 36,8 59,-19 z" />
    <path
       inkscape:connector-curvature="0"
       id="path863"
       d="m 8423,2100 c 0,-91 3,-178 7,-195 10,-39 10,124 0,260 -6,94 -7,90 -7,-65 z" />
    <path
       inkscape:connector-curvature="0"
       id="path865"
       d="m 8388,1123 c 23,-2 59,-2 80,0 20,2 1,4 -43,4 -44,0 -61,-2 -37,-4 z" />
    <path
       inkscape:connector-curvature="0"
       id="path867"
       d="m 5304,1442 c -82,-52 -28,-132 88,-132 75,0 118,27 118,75 0,47 -34,68 -114,73 -47,2 -68,-1 -92,-16 z m 56,-42 c -48,-42 -65,-48 -73,-26 -11,29 38,65 88,65 h 30 z m 84,32 c 7,-11 -103,-106 -112,-97 -4,4 18,29 48,56 63,55 57,52 64,41 z m 49,-58 c -7,-19 -48,-40 -93,-48 l -35,-7 55,50 c 48,43 57,48 67,35 6,-9 9,-22 6,-30 z" />
    <path
       inkscape:connector-curvature="0"
       id="path869"
       d="m 5782,1450 c -45,-10 -72,-37 -72,-72 0,-55 64,-87 152,-75 84,11 118,91 53,128 -38,21 -91,29 -133,19 z m 57,-26 c -7,-8 -21,-13 -32,-10 -10,2 -25,2 -33,-1 -15,-6 -20,-43 -5,-43 5,0 8,-8 7,-17 -1,-21 38,-30 58,-14 6,6 21,8 32,5 12,-3 26,1 34,11 12,15 12,19 -1,29 -9,6 -14,17 -12,24 3,6 -1,12 -8,12 -7,0 -9,3 -6,6 11,11 57,-26 57,-46 0,-31 -47,-60 -97,-60 -46,0 -98,21 -106,42 -11,33 46,77 102,78 20,0 22,-2 10,-16 z m 15,-26 c -4,-6 2,-17 12,-25 18,-13 17,-14 -7,-8 -16,4 -30,2 -33,-4 -4,-6 -12,-11 -17,-11 -6,0 -7,5 -4,10 4,6 2,17 -4,24 -9,11 -6,12 13,9 13,-3 27,0 30,6 4,6 9,11 12,11 3,0 2,-5 -2,-12 z" />
    <path
       inkscape:connector-curvature="0"
       id="path871"
       d="m 6537,1013 c -4,-3 -7,-23 -7,-43 0,-20 -4,-40 -10,-46 -5,-5 -21,-56 -34,-114 -26,-104 -26,-104 -6,-125 11,-12 20,-33 20,-48 v -27 h -531 -531 l -59,-51 c -57,-49 -59,-53 -59,-100 0,-27 4,-49 10,-49 5,0 24,18 41,40 l 32,40 h 549 c 541,0 548,0 548,-20 0,-20 7,-20 325,-20 h 325 l -2,283 -3,282 -301,3 c -165,1 -303,-1 -307,-5 z m 33,-284 V 459 l -27,3 -28,3 -3,93 c -3,87 -2,92 18,92 19,0 20,6 20,175 0,110 4,175 10,175 6,0 10,-97 10,-271 z m 40,0 c 0,-224 -2,-259 -15,-259 -13,0 -15,35 -15,258 0,142 3,262 6,265 20,19 24,-28 24,-264 z m 50,0 c 0,-224 -2,-259 -15,-259 -13,0 -15,35 -15,258 0,142 3,262 6,265 20,19 24,-28 24,-264 z m 50,0 c 0,-224 -2,-259 -15,-259 -13,0 -15,35 -15,258 0,142 3,262 6,265 20,19 24,-28 24,-264 z m 358,7 c 2,-201 -1,-261 -10,-268 -7,-4 -86,-8 -175,-8 h -163 v 270 270 l 173,-2 172,-3 z m 62,-6 V 460 h -22 -23 v 270 270 h 23 22 z m -605,-48 c -3,-3 -14,3 -24,14 -18,18 -18,21 3,109 l 21,90 3,-104 c 1,-57 0,-106 -3,-109 z m -25,-132 c 0,-22 -4,-40 -9,-40 -5,0 -7,9 -4,20 7,27 -11,25 -26,-2 l -11,-23 6,23 c 3,12 1,22 -4,22 -5,0 -17,-10 -25,-22 l -16,-23 6,23 c 3,12 1,22 -4,22 -6,0 -15,-10 -22,-22 -9,-18 -10,-18 -5,-3 15,47 16,55 6,55 -5,0 -15,-14 -22,-30 -15,-35 -31,-49 -23,-20 7,27 -11,25 -26,-2 l -11,-23 6,23 c 7,28 -9,28 -29,0 l -16,-23 6,23 c 7,27 -13,30 -22,2 -3,-11 -11,-20 -17,-20 -6,0 -6,6 2,15 7,9 10,19 6,23 -4,4 -17,-4 -28,-18 l -20,-25 16,27 c 9,15 16,32 16,38 0,21 -17,9 -36,-25 -10,-19 -23,-35 -27,-35 -5,0 -4,7 3,15 16,20 5,32 -14,16 -11,-9 -15,-9 -19,1 -3,9 -9,7 -23,-7 -10,-12 -15,-15 -10,-8 17,25 -6,28 -26,3 -20,-24 -20,-24 -14,-2 5,13 3,22 -3,22 -6,0 -8,7 -5,15 11,27 -10,15 -40,-23 -20,-26 -26,-31 -21,-14 8,27 -1,28 -23,4 -10,-10 -13,-12 -8,-5 15,22 -2,27 -24,8 -17,-16 -20,-16 -15,-2 10,23 -34,19 -65,-7 l -25,-21 23,26 c 39,44 24,55 -20,14 -23,-22 -36,-32 -29,-22 22,28 3,33 -26,6 -15,-13 -21,-16 -14,-6 22,28 3,33 -26,6 -15,-13 -21,-16 -14,-6 22,28 3,33 -26,6 -15,-13 -21,-16 -14,-6 22,28 3,33 -27,6 -26,-23 -26,-23 2,8 41,45 24,55 -20,12 -19,-19 -32,-26 -29,-16 10,23 -6,21 -41,-5 -19,-15 -24,-17 -15,-5 22,28 3,33 -26,6 -15,-13 -21,-16 -14,-6 22,28 5,31 -31,6 -22,-16 -28,-17 -19,-6 21,27 4,33 -22,9 -35,-33 -45,-26 -12,8 42,44 21,50 -23,7 -21,-20 -42,-37 -46,-37 -5,0 11,18 35,40 l 44,39 528,1 h 527 z" />
    <path
       inkscape:connector-curvature="0"
       id="path873"
       d="M 7890,595 V 440 l 828,2 827,3 3,153 3,152 h -831 -830 z m 1640,0 V 460 h -810 -810 v 135 135 h 810 810 z" />
    <path
       inkscape:connector-curvature="0"
       id="path875"
       d="m 7964,697 c -2,-7 -3,-58 -2,-113 l 3,-99 763,-3 762,-2 v 115 115 h -760 c -621,0 -762,-2 -766,-13 z m 84,-26 c -41,-36 -45,-93 -10,-140 l 23,-31 h -41 -40 v 93 c 0,52 3,97 7,100 3,4 26,7 50,7 h 43 z m 1201,1 c -41,-36 -45,-95 -11,-141 l 23,-31 h -545 -545 l 24,25 c 37,37 35,106 -4,146 l -29,29 h 559 559 z m 221,-72 V 500 h -50 -49 l 24,25 c 37,37 35,106 -4,146 l -29,29 h 54 54 z m -1309,69 c 25,-13 48,-65 42,-90 -8,-30 -17,-23 -46,36 -35,72 -35,75 4,54 z m 1189,-4 c 0,-8 -9,-15 -20,-15 -11,0 -20,7 -20,15 0,8 9,15 20,15 11,0 20,-7 20,-15 z m -60,-70 c 0,-41 -4,-75 -8,-75 -20,0 -46,43 -46,75 0,32 26,75 46,75 4,0 8,-34 8,-75 z m 105,34 c 13,-25 14,-33 1,-63 -26,-61 -36,-53 -36,29 0,80 8,88 35,34 z M 8091,579 c 16,-34 28,-64 24,-67 -11,-11 -60,23 -73,52 -14,28 -9,76 8,76 5,0 24,-27 41,-61 z m 49,26 c 13,-16 6,-35 -15,-35 -15,0 -28,27 -19,41 8,13 20,11 34,-6 z m 34,-60 c 7,-20 -23,-33 -34,-14 -5,7 -6,17 -4,21 9,13 32,9 38,-7 z m 1176,-15 c 0,-13 -7,-20 -20,-20 -13,0 -20,7 -20,20 0,13 7,20 20,20 13,0 20,-7 20,-20 z" />
    <path
       inkscape:connector-curvature="0"
       id="path877"
       d="m 8644,680 c -29,-4 -57,-11 -63,-14 -15,-10 -14,-133 1,-142 18,-11 160,-17 212,-10 l 46,7 v 74 74 l -32,5 c -75,11 -116,13 -164,6 z m 175,-30 c 11,-6 -25,-9 -108,-10 -68,0 -122,3 -118,6 23,23 188,26 226,4 z m -159,-55 c 0,-18 -5,-25 -20,-25 -15,0 -20,7 -20,25 0,18 5,25 20,25 15,0 20,-7 20,-25 z m 90,0 c 0,-22 -4,-25 -35,-25 -31,0 -35,3 -35,25 0,22 4,25 35,25 31,0 35,-3 35,-25 z m 80,0 c 0,-22 -4,-25 -35,-25 -31,0 -35,3 -35,25 0,22 4,25 35,25 31,0 35,-3 35,-25 z m 0,-44 c 0,-21 -140,-32 -207,-17 -67,15 -30,26 87,26 66,0 120,-4 120,-9 z" />
    <path
       inkscape:connector-curvature="0"
       id="path879"
       d="m 3837,2808 c -21,-6 -54,-26 -72,-44 -63,-63 -69,-150 -20,-313 14,-47 25,-90 25,-96 0,-5 -30,-21 -67,-33 -166,-57 -302,-143 -338,-213 -19,-36 -19,-92 -1,-128 28,-53 175,-164 259,-194 25,-9 21,-25 -13,-57 l -31,-29 25,-17 c 16,-10 39,-15 61,-12 19,2 35,2 35,-2 0,-13 -40,-440 -45,-487 l -6,-53 h 365 c 201,0 366,4 366,8 0,4 -35,46 -78,92 l -77,85 7,80 c 4,44 9,182 10,306 l 3,225 75,-37 c 87,-44 235,-89 291,-89 56,0 48,16 -13,24 -80,11 -226,62 -295,103 -49,29 -63,42 -63,61 0,13 -4,22 -9,20 -6,-2 -12,-140 -15,-323 -3,-176 -8,-334 -12,-351 -5,-27 1,-38 66,-107 l 72,-77 h -151 -151 v 230 c 0,198 -2,230 -15,230 -13,0 -15,-32 -15,-230 v -230 h -165 -165 v 33 c 1,17 11,145 24,282 13,138 22,252 20,254 -3,3 -18,-3 -35,-13 -16,-10 -37,-15 -45,-12 -14,5 -13,8 0,28 33,47 22,70 -51,107 -151,79 -232,166 -219,236 10,53 84,117 200,174 56,27 127,58 159,67 53,17 57,20 57,49 0,17 -12,71 -26,120 -46,157 -34,237 43,290 83,56 229,8 303,-101 32,-45 30,-54 -11,-54 -29,0 -39,-19 -39,-77 0,-31 -2,-33 -35,-33 -77,0 -169,77 -181,150 -4,25 -12,40 -21,40 -11,0 -13,-8 -8,-32 23,-106 103,-178 196,-178 h 41 l -7,-50 c -6,-45 -4,-55 25,-100 42,-65 151,-166 231,-213 76,-44 227,-95 310,-104 72,-7 82,11 12,21 -120,17 -266,73 -357,135 -60,42 -142,124 -176,178 -24,38 -26,48 -19,95 4,29 10,74 14,101 6,43 9,47 33,47 69,1 66,33 -14,119 -78,85 -180,123 -267,99 z" />
    <path
       inkscape:connector-curvature="0"
       id="path881"
       d="m 3960,2665 c 0,-22 4,-26 23,-23 14,2 22,10 22,23 0,13 -8,21 -22,23 -19,3 -23,-1 -23,-23 z" />
    <path
       inkscape:connector-curvature="0"
       id="path883"
       d="m 1602,2591 -83,-59 -187,6 -187,5 -524,-373 -523,-373 6,-45 c 3,-25 7,-46 9,-47 1,-1 112,4 247,11 335,18 337,18 342,-3 3,-12 34,-29 87,-48 90,-32 93,-35 156,-150 21,-38 44,-77 51,-85 8,-9 14,-48 16,-95 l 3,-79 395,-158 c 217,-87 399,-158 405,-157 10,0 218,242 244,284 l 14,23 67,-23 67,-23 312,494 313,494 15,96 c 8,53 11,99 7,104 -5,4 -96,27 -203,50 l -193,43 -42,-49 c -22,-27 -52,-61 -66,-76 l -25,-28 -152,28 -153,27 v 97 c 0,83 -2,97 -17,102 -10,2 -79,17 -153,31 -74,14 -142,28 -150,30 -8,2 -52,-22 -98,-54 z m 94,31 c -2,-4 -216,-152 -475,-327 -258,-176 -469,-324 -468,-329 2,-4 74,-31 162,-58 134,-42 163,-48 180,-38 19,12 19,11 3,-6 -17,-17 -24,-16 -175,30 -87,27 -168,51 -180,54 -13,2 -23,7 -23,11 1,5 969,669 978,671 2,0 1,-4 -2,-8 z m 212,-73 c -4,-10 -129,-109 -138,-109 -4,0 -22,3 -39,6 l -31,7 v 72 72 l 105,-21 c 58,-11 104,-23 103,-27 z m -228,-39 v -71 l -354,-264 -354,-263 -83,25 c -46,14 -87,28 -91,32 -5,4 862,607 880,610 1,1 2,-31 2,-69 z m 286,62 c 18,-6 -2,-26 -135,-129 -86,-68 -182,-143 -213,-169 -32,-25 -58,-43 -58,-41 0,3 88,75 195,161 107,86 195,160 195,165 0,5 -10,12 -22,14 -19,4 -20,4 -3,5 11,0 30,-3 41,-6 z m 38,-63 c 3,-17 6,-55 6,-84 v -53 l -435,-359 c -240,-197 -439,-359 -444,-361 -17,-6 -42,74 -39,128 l 3,55 445,352 c 245,193 448,352 451,352 4,1 9,-13 13,-30 z m -520,1 c -5,-5 -84,-13 -175,-16 l -164,-7 -455,-322 C 441,1988 234,1838 232,1831 c -3,-10 11,-12 59,-7 139,12 399,18 399,9 0,-6 -68,-13 -157,-17 -87,-3 -210,-9 -273,-12 -81,-5 -112,-3 -105,4 6,6 231,168 500,361 l 490,350 h 175 c 116,1 171,-2 164,-9 z m -69,-46 c -11,-8 -179,-123 -372,-255 L 690,1969 v -54 -53 l -102,-6 c -215,-11 -308,-15 -308,-11 0,2 197,143 438,314 l 438,310 75,4 c 189,8 206,8 184,-9 z m 1233,-43 c 96,-22 176,-42 180,-45 3,-4 0,-12 -8,-19 -10,-9 -11,-9 -6,0 4,8 -2,14 -16,18 -89,21 -333,74 -333,72 -6,-11 -168,-197 -171,-197 -3,0 35,47 83,105 48,57 90,105 93,105 3,-1 83,-18 178,-39 z m -898,2 c -1,-7 -605,-494 -658,-531 -15,-10 -26,-10 -56,1 l -37,13 352,262 c 225,167 361,262 376,262 13,0 23,-3 23,-7 z m 842,-22 c 46,-11 109,-24 141,-31 l 57,-11 -51,-75 c -28,-41 -54,-74 -58,-74 -3,0 -50,10 -103,22 l -98,22 v 83 c 0,96 -8,92 112,64 z m -132,-74 v -73 l -271,-343 c -304,-383 -264,-349 -371,-317 l -38,11 337,398 c 185,218 338,397 340,397 2,0 3,-33 3,-73 z m -286,12 c 118,-21 141,-27 135,-33 -2,-2 -69,9 -149,24 -80,16 -134,29 -121,29 13,1 74,-8 135,-20 z m -1,-32 118,-22 -68,-80 c -37,-45 -81,-96 -96,-114 l -28,-34 -57,12 c -31,7 -74,17 -94,22 l -38,10 v 82 l 1,82 46,37 c 35,27 53,36 72,32 14,-3 79,-15 144,-27 z m 653,-35 c -11,-66 -21,-85 -310,-541 -164,-259 -300,-470 -301,-469 -1,2 1,44 4,93 l 7,90 304,448 c 168,246 305,447 305,447 1,0 -4,-31 -9,-68 z m -936,-104 -1,-73 -270,-262 c -148,-145 -275,-263 -281,-263 -21,0 -178,64 -176,71 3,7 719,599 725,599 2,0 3,-33 3,-72 z m 775,20 c 3,-3 -449,-663 -472,-688 -4,-4 -218,48 -240,59 -7,4 93,137 255,342 l 266,335 93,-22 c 52,-12 96,-24 98,-26 z m -1145,11 c -53,-45 -157,-124 -140,-106 20,21 164,136 170,136 3,0 -11,-13 -30,-30 z m 1067,-186 c -51,-76 -156,-230 -232,-343 -76,-113 -140,-207 -141,-209 -2,-2 -67,14 -145,35 -78,21 -138,39 -133,41 5,2 66,-12 137,-31 l 127,-34 236,339 c 129,186 238,339 240,339 3,0 -37,-62 -89,-137 z m -594,48 c 43,-10 80,-20 82,-23 2,-2 -79,-103 -181,-223 l -184,-220 6,-70 c 10,-107 9,-107 -185,-33 -88,34 -161,64 -160,67 2,9 531,521 538,521 3,-1 41,-9 84,-19 z M 899,1880 c 90,-27 165,-50 167,-50 2,0 4,-18 4,-40 0,-38 -1,-40 -21,-30 -16,9 -26,8 -45,-5 -31,-20 -31,-49 1,-100 26,-42 30,-55 18,-55 -5,0 -30,41 -58,91 -27,51 -60,98 -72,106 -21,14 -26,14 -48,-1 -30,-20 -32,-50 -4,-95 11,-18 19,-35 17,-36 -2,-2 -33,8 -69,22 l -66,24 -7,46 c -11,82 -7,183 7,178 6,-3 86,-27 176,-55 z M 700,1775 c 0,-19 -5,-25 -22,-25 -13,-1 -140,-7 -283,-14 -143,-8 -263,-12 -267,-9 -5,2 -8,15 -8,29 0,21 5,24 38,25 20,1 98,5 172,8 74,4 188,8 253,9 l 117,2 z m 282,-145 c 48,-85 87,-163 88,-172 0,-25 -33,-40 -54,-25 -9,7 -54,82 -101,166 -68,125 -82,158 -74,173 6,12 19,18 32,16 17,-2 43,-40 109,-158 z m 160,-40 c 48,-85 87,-163 87,-172 1,-10 -8,-22 -18,-28 -30,-16 -51,11 -140,174 -65,121 -78,153 -70,168 6,12 19,18 32,16 17,-2 43,-40 109,-158 z m 181,-40 c 48,-18 86,-35 84,-37 -5,-4 -189,65 -197,74 -6,7 0,6 113,-37 z m 325,-165 c 1,-5 -25,-43 -58,-84 -64,-78 -70,-94 -43,-123 33,-36 57,-23 138,75 43,50 82,92 86,91 5,-1 16,-2 24,-2 31,-4 16,-53 -35,-114 -50,-60 -61,-93 -38,-116 15,-15 61,-15 76,0 9,9 12,-6 12,-70 v -82 l -47,19 c -27,10 -202,81 -390,156 l -343,137 v 67 c 0,59 2,67 23,76 30,14 33,54 7,105 -12,23 -19,44 -17,46 5,6 28,-31 78,-124 35,-65 66,-85 98,-65 29,18 24,60 -13,127 -20,36 -36,66 -36,69 0,9 476,-178 478,-188 z m 367,105 c 105,-29 190,-53 191,-53 3,-9 -13,-197 -17,-201 -3,-3 -56,11 -117,32 l -112,37 35,44 c 19,24 35,50 35,57 0,19 -37,54 -56,54 -16,0 -72,-53 -100,-96 -13,-19 -19,-21 -49,-11 -19,6 -35,15 -35,20 0,5 14,25 30,44 17,18 30,42 30,53 0,43 -63,67 -91,34 -12,-15 -14,-14 -20,7 -16,56 -14,59 39,44 26,-7 133,-37 237,-65 z m -482,-20 c 48,-18 86,-35 84,-37 -5,-4 -189,65 -197,74 -6,7 0,6 113,-37 z m 285,28 c 7,-7 12,-20 12,-29 0,-16 -208,-275 -233,-291 -16,-10 -47,10 -47,31 0,17 193,262 228,289 20,15 25,15 40,0 z m 190,-85 c 2,-16 -29,-61 -114,-162 -117,-141 -143,-160 -163,-123 -12,23 -6,32 124,191 84,102 104,121 125,119 17,-2 26,-10 28,-25 z m 1,-144 c 23,-7 41,-16 41,-20 0,-6 -164,-204 -206,-249 -12,-12 -14,-3 -14,66 v 81 l 58,71 c 31,40 62,70 68,68 7,-3 30,-10 53,-17 z" />
    <path
       inkscape:connector-curvature="0"
       id="path885"
       d="m 4540,1922 c 0,-6 23,-15 50,-21 63,-14 60,-14 60,4 0,8 -8,15 -17,15 -10,0 -35,3 -55,6 -24,4 -38,3 -38,-4 z" />
  </g>
</svg>
