<?xml version="1.0" encoding="UTF-8" standalone="no"?>
<svg
   xmlns:dc="http://purl.org/dc/elements/1.1/"
   xmlns:cc="http://creativecommons.org/ns#"
   xmlns:rdf="http://www.w3.org/1999/02/22-rdf-syntax-ns#"
   xmlns:svg="http://www.w3.org/2000/svg"
   xmlns="http://www.w3.org/2000/svg"
   xmlns:sodipodi="http://sodipodi.sourceforge.net/DTD/sodipodi-0.dtd"
   xmlns:inkscape="http://www.inkscape.org/namespaces/inkscape"
   inkscape:version="1.0beta2 (2b71d25, 2019-12-03)"
   sodipodi:docname="ikea-man.svg"
   id="svg843"
   preserveAspectRatio="xMidYMid meet"
   viewBox="0 0 293.99899 175.9382"
   height="175.9382pt"
   width="293.99899pt"
   version="1.0">
  <metadata
     id="metadata849">
    <rdf:RDF>
      <cc:Work
         rdf:about="">
        <dc:format>image/svg+xml</dc:format>
        <dc:type
           rdf:resource="http://purl.org/dc/dcmitype/StillImage" />
      </cc:Work>
    </rdf:RDF>
  </metadata>
  <defs
     id="defs847" />
  <sodipodi:namedview
     inkscape:current-layer="svg843"
     inkscape:window-maximized="0"
     inkscape:window-y="23"
     inkscape:window-x="0"
     inkscape:cy="115.65923"
     inkscape:cx="178.36673"
     inkscape:zoom="1.3675"
     showgrid="false"
     id="namedview845"
     inkscape:window-height="733"
     inkscape:window-width="1280"
     inkscape:pageshadow="2"
     inkscape:pageopacity="0"
     guidetolerance="10"
     gridtolerance="10"
     objecttolerance="10"
     borderopacity="1"
     inkscape:document-rotation="0"
     bordercolor="#666666"
     pagecolor="#ffffff" />
  <g
     id="g841"
     stroke="none"
     fill="#000000"
     transform="matrix(0.1,0,0,-0.1,-3.0622466,238.9382)">
    <path
       inkscape:connector-curvature="0"
       id="path833"
       d="m 2355,2366 c -64,-30 -106,-65 -144,-123 -34,-50 -29,-73 15,-73 12,0 26,-5 29,-10 7,-11 37,-202 33,-205 -2,-1 -34,-19 -73,-39 -86,-47 -159,-104 -204,-159 -88,-109 -93,-204 -17,-294 29,-35 27,-39 -24,-45 -54,-6 -8,-85 63,-108 l 47,-15 v -50 c 0,-27 5,-117 12,-198 l 11,-148 -38,-39 -39,-40 -111,1 c -109,0 -365,35 -295,39 19,1 82,5 140,9 l 105,6 3,41 3,40 -118,50 -118,50 -225,-7 c -124,-4 -287,-10 -363,-13 l -137,-6 5,113 c 8,153 8,152 54,166 43,12 94,64 89,90 -2,9 -14,18 -28,19 -41,6 -45,19 -15,53 74,89 61,200 -36,300 -52,53 -145,118 -211,147 -46,20 -47,21 -41,59 18,117 18,117 43,123 27,7 29,21 9,95 -15,56 -100,139 -158,155 -80,21 -158,-9 -202,-79 -37,-58 -38,-116 -3,-235 14,-48 24,-95 22,-103 -2,-8 -46,-31 -99,-52 -158,-62 -263,-130 -295,-192 -18,-36 -18,-92 1,-128 22,-43 98,-105 181,-148 73,-37 73,-38 52,-55 -18,-13 -20,-20 -11,-40 9,-20 7,-27 -20,-56 l -31,-32 27,-27 27,-27 50,49 c 27,27 52,46 55,43 5,-5 -8,-146 -20,-228 -6,-34 -9,-36 -71,-54 l -64,-18 v -44 -43 l 56,-7 57,-7 -7,-68 -6,-69 h 202 c 113,0 197,-4 190,-9 -8,-5 -12,-23 -10,-47 l 3,-39 641,-3 642,-2 107,50 107,50 h 234 c 182,0 234,3 234,13 0,7 -9,114 -20,237 -27,303 -28,280 18,280 25,0 45,7 56,19 16,17 15,19 -9,35 -41,27 -31,47 45,89 237,129 272,243 115,371 -55,44 -202,124 -267,146 -46,14 -46,17 -10,135 34,114 36,117 67,103 13,-6 31,-8 39,-5 29,12 16,38 -34,69 -30,19 -50,38 -50,49 0,26 -59,89 -97,105 -48,21 -112,17 -168,-10 z m 178,-25 c 30,-19 64,-61 50,-61 -5,0 -13,4 -18,9 -18,17 -85,31 -85,18 1,-24 93,-107 119,-107 6,0 11,-7 11,-15 0,-8 -9,-15 -20,-15 -23,0 -26,-10 -8,-28 9,-9 5,-33 -16,-101 -15,-49 -26,-97 -24,-107 2,-10 39,-32 99,-58 116,-50 170,-82 230,-135 62,-55 84,-100 69,-146 -15,-46 -88,-110 -193,-169 -93,-52 -103,-68 -71,-114 14,-20 14,-23 0,-28 -9,-3 -28,1 -42,11 -14,9 -28,14 -32,11 -3,-4 4,-125 16,-269 13,-144 22,-265 22,-269 0,-5 -72,-8 -160,-8 h -160 v 220 c 0,189 -2,220 -15,220 -13,0 -15,-31 -15,-220 V 760 h -35 c -32,0 -35,2 -35,30 v 30 h -75 -76 l 31,39 32,39 -12,119 c -6,65 -14,244 -16,398 -3,154 -9,281 -13,283 -12,4 -21,-104 -21,-244 0,-114 -1,-124 -19,-124 -20,0 -71,36 -71,50 0,4 14,13 30,19 39,13 39,41 -1,91 -40,50 -49,112 -24,176 31,82 175,206 291,250 45,17 45,18 39,54 l -6,38 45,6 c 80,12 154,87 159,161 3,36 -16,31 -26,-7 -19,-72 -86,-128 -156,-128 -28,0 -29,2 -35,63 -8,74 -13,84 -45,88 -14,2 -26,9 -28,15 -6,18 67,94 121,124 62,36 144,41 189,11 z M 646,2309 c 49,-23 88,-70 109,-130 20,-55 19,-59 -9,-59 -20,0 -25,-6 -30,-45 -6,-38 -11,-45 -29,-45 -28,0 -71,28 -106,70 -18,22 -30,30 -35,22 -11,-19 72,-100 116,-114 38,-11 39,-13 36,-51 -3,-38 -2,-40 45,-58 113,-45 233,-143 273,-224 34,-71 28,-125 -22,-190 -19,-25 -34,-52 -34,-59 0,-8 16,-20 34,-26 41,-13 39,-33 -5,-55 -54,-28 -59,-23 -59,64 0,44 -4,83 -10,86 -15,9 -18,-24 -25,-222 -7,-238 -8,-243 -51,-243 -30,0 -34,-3 -34,-26 0,-24 -3,-26 -31,-20 -17,3 -40,6 -50,6 -17,0 -19,9 -19,105 0,87 -3,105 -15,105 -12,0 -15,-18 -15,-100 0,-55 -1,-100 -3,-100 -2,0 -51,9 -110,19 -84,15 -114,17 -142,8 -19,-5 -37,-8 -39,-6 -9,8 16,235 30,275 8,22 30,55 49,74 33,32 36,33 53,17 10,-9 22,-17 27,-17 16,0 45,33 45,51 0,37 -115,109 -175,109 -43,0 -44,-11 -4,-44 30,-26 31,-27 14,-46 -10,-11 -25,-20 -33,-20 -10,0 -12,-5 -7,-17 5,-10 10,-32 13,-50 3,-25 -1,-34 -21,-48 -22,-14 -30,-15 -53,-3 -35,17 -41,34 -15,43 44,14 24,43 -59,86 -92,47 -171,114 -190,159 -18,43 -5,79 48,130 57,54 138,99 264,144 72,26 94,38 96,54 2,12 -11,71 -28,132 -35,122 -35,156 3,210 46,68 126,87 203,49 z m 1875,-22 c -1,-12 -15,-9 -19,4 -3,6 1,10 8,8 6,-3 11,-8 11,-12 z m 106,-53 c 40,-26 71,-49 68,-52 -3,-3 -11,0 -17,6 -7,7 -17,12 -22,12 -6,0 3,-9 19,-20 17,-11 25,-20 20,-20 -17,0 -56,31 -50,40 7,11 -43,42 -56,35 -13,-9 -61,23 -54,35 9,15 11,14 92,-36 z M 485,1490 c 49,-24 90,-64 80,-79 -11,-20 -29,-11 -90,44 -63,58 -60,69 10,35 z m -9,-61 c 3,-6 -5,-23 -19,-37 -23,-23 -27,-24 -33,-8 -4,10 1,25 11,36 21,23 31,25 41,9 z M 315,1274 c 14,-6 11,-12 -16,-40 -25,-26 -35,-31 -46,-22 -11,9 -9,16 13,40 15,15 29,28 30,28 1,0 10,-3 19,-6 z M 1705,999 c 41,-18 75,-35 75,-38 0,-4 -165,-12 -367,-18 l -367,-12 -73,31 c -40,17 -73,34 -73,38 0,6 144,12 673,28 45,2 74,-5 132,-29 z M 618,984 c 136,-23 175,-34 289,-82 73,-31 131,-58 129,-59 -6,-6 -726,111 -726,118 0,5 71,28 148,48 2,1 74,-11 160,-25 z m 412,-86 c 0,-10 -1,-18 -3,-18 -2,0 -43,18 -92,40 -65,28 -91,45 -93,59 -3,18 6,16 92,-22 69,-30 96,-47 96,-59 z M 912,838 c 571,-91 648,-105 648,-120 0,-10 -6,-18 -12,-18 -7,0 -302,46 -655,102 -567,91 -643,105 -643,120 0,10 3,18 8,18 4,1 298,-45 654,-102 z m 928,83 c 0,-25 -40,-29 -360,-36 -129,-3 -277,-8 -327,-11 -81,-6 -94,-4 -99,10 -4,9 -4,19 -1,22 3,3 169,11 369,18 200,7 375,14 391,15 20,1 27,-4 27,-18 z M 540,832 c 91,-16 95,-18 98,-44 l 3,-28 H 494 348 l 6,31 c 3,17 6,40 6,51 0,21 -4,22 180,-10 z m 1047,-3 c 84,-13 151,-24 149,-26 -1,-2 -39,-14 -83,-27 l -80,-23 -257,41 c -141,22 -256,44 -256,48 0,7 284,17 345,12 17,-2 99,-13 182,-25 z M 753,798 c 40,-6 74,-13 77,-15 13,-12 -34,-23 -97,-23 -71,0 -73,1 -73,25 0,29 -2,29 93,13 z m 1387,-4 c 0,-3 -34,-21 -76,-40 -72,-32 -80,-34 -187,-33 -77,0 -105,3 -89,9 14,6 22,18 22,33 0,13 3,27 7,30 7,8 323,8 323,1 z m -352,-21 c -2,-12 -31,-25 -98,-45 -113,-33 -110,-33 -110,-10 0,15 19,24 88,44 108,32 124,33 120,11 z m 402,-2 c 0,-13 -24,-29 -90,-60 -50,-22 -93,-41 -95,-41 -3,0 -5,7 -5,16 0,9 34,32 93,59 50,25 93,45 95,45 1,0 2,-8 2,-19 z m -1115,-25 140,-24 -220,-1 -220,-1 50,24 c 63,31 79,31 250,2 z m 387,-62 c 100,-16 112,-16 166,0 42,11 100,16 205,16 140,0 147,-1 147,-20 0,-20 -7,-20 -625,-20 -618,0 -625,0 -625,20 0,20 7,20 313,20 239,0 337,-4 419,-16 z" />
    <path
       inkscape:connector-curvature="0"
       id="path835"
       d="m 2344,2249 c -3,-6 -2,-15 4,-21 13,-13 32,-2 32,18 0,16 -26,19 -36,3 z" />
    <path
       inkscape:connector-curvature="0"
       id="path837"
       d="m 666,2193 c -12,-12 -6,-33 9,-33 8,0 15,6 15,14 0,17 -14,28 -24,19 z" />
    <path
       inkscape:connector-curvature="0"
       id="path839"
       d="m 2556,2255 c 10,-8 23,-15 28,-15 6,0 1,7 -10,15 -10,8 -23,15 -28,15 -6,0 -1,-7 10,-15 z" />
  </g>
</svg>
